<?xml version="1.0" standalone="no"?>
<!DOCTYPE svg PUBLIC "-//W3C//DTD SVG 20010904//EN"
        "http://www.w3.org/TR/2001/REC-SVG-20010904/DTD/svg10.dtd">
<svg version="1.0" xmlns="http://www.w3.org/2000/svg"
     width="400.000000pt" height="400.000000pt" viewBox="0 0 400.000000 400.000000"
     preserveAspectRatio="xMidYMid meet">

    <g transform="translate(0.000000,400.000000) scale(0.100000,-0.100000)"
       fill="#000000" stroke="none">
        <path d="M1132 3124 c-162 -43 -295 -194 -324 -366 -39 -237 128 -473 366
-517 33 -6 136 -11 230 -11 l170 0 -286 -288 c-326 -327 -333 -336 -332 -462
0 -61 5 -84 26 -125 34 -63 305 -334 368 -366 64 -34 186 -34 250 -1 29 15
145 123 326 304 l282 281 4 -194 c4 -173 7 -200 28 -254 58 -150 162 -246 309
-287 213 -59 432 44 533 250 l33 67 3 884 2 885 -25 53 c-15 29 -46 70 -71 92
-85 74 -37 71 -988 70 -705 0 -860 -3 -904 -15z m1741 -185 c12 -6 30 -21 39
-33 16 -19 18 -79 18 -847 0 -715 -2 -831 -15 -870 -36 -105 -131 -172 -245
-172 -37 0 -80 6 -101 15 -55 24 -110 78 -135 133 -24 50 -24 51 -24 465 l0
415 -442 -442 c-297 -296 -452 -444 -471 -449 -46 -11 -77 11 -210 144 -125
125 -147 159 -139 208 2 12 198 216 447 465 l444 444 -422 5 c-468 6 -457 4
-535 74 -99 90 -115 231 -38 344 24 34 50 56 95 80 l63 32 825 0 c587 0 831
-3 846 -11z"/>
    </g>
</svg>
